<?xml version="1.0" encoding="UTF-8" standalone="no"?>
<!-- Created with Inkscape (http://www.inkscape.org/) -->

<svg
   xmlns:dc="http://purl.org/dc/elements/1.1/"
   xmlns:cc="http://creativecommons.org/ns#"
   xmlns:rdf="http://www.w3.org/1999/02/22-rdf-syntax-ns#"
   xmlns:svg="http://www.w3.org/2000/svg"
   xmlns="http://www.w3.org/2000/svg"
   xmlns:sodipodi="http://sodipodi.sourceforge.net/DTD/sodipodi-0.dtd"
   xmlns:inkscape="http://www.inkscape.org/namespaces/inkscape"
   width="11cm"
   height="11cm"
   viewBox="0 0 110 110"
   version="1.1"
   id="svg3707"
   inkscape:version="0.92.2 (5c3e80d, 2017-08-06)"
   sodipodi:docname="0 b weiss.svg"
   inkscape:export-filename="D:\Dienste für Christus\Überblicke\BibleWiki\Logo\Icon v2\b.png"
   inkscape:export-xdpi="499.91821"
   inkscape:export-ydpi="499.91821">
  <defs
     id="defs3701">
    <clipPath
       id="clipPath33"
       clipPathUnits="userSpaceOnUse">
      <path
         inkscape:connector-curvature="0"
         id="path31"
         d="M 0,500 H 500 V 0 H 0 Z" />
    </clipPath>
    <linearGradient
       id="linearGradient71"
       spreadMethod="pad"
       gradientTransform="matrix(76.970253,76.970253,76.970253,-76.970253,211.51486,344.63614)"
       gradientUnits="userSpaceOnUse"
       y2="0"
       x2="1"
       y1="0"
       x1="0">
      <stop
         id="stop67"
         offset="0"
         style="stop-opacity:1;stop-color:#d90000" />
      <stop
         id="stop69"
         offset="1"
         style="stop-opacity:1;stop-color:#ff5500" />
    </linearGradient>
    <clipPath
       id="clipPath81"
       clipPathUnits="userSpaceOnUse">
      <path
         inkscape:connector-curvature="0"
         id="path79"
         d="M 0,500 H 500 V 0 H 0 Z" />
    </clipPath>
    <clipPath
       id="clipPath89"
       clipPathUnits="userSpaceOnUse">
      <path
         inkscape:connector-curvature="0"
         id="path87"
         d="m 227.601,418.493 h 54.208 V 343.75 h -54.208 z" />
    </clipPath>
    <clipPath
       id="clipPath169"
       clipPathUnits="userSpaceOnUse">
      <path
         inkscape:connector-curvature="0"
         id="path167"
         d="m 214.351,293.996 h 77.298 v -93.539 h -77.298 z" />
    </clipPath>
    <linearGradient
       id="linearGradient197"
       spreadMethod="pad"
       gradientTransform="matrix(69.381485,71.845787,74.310104,-71.845787,213.95509,209.97638)"
       gradientUnits="userSpaceOnUse"
       y2="0"
       x2="1"
       y1="0"
       x1="0">
      <stop
         id="stop191"
         offset="0"
         style="stop-opacity:1;stop-color:#317800" />
      <stop
         id="stop193"
         offset="0.25947867"
         style="stop-opacity:1;stop-color:#317800" />
      <stop
         id="stop195"
         offset="1"
         style="stop-opacity:1;stop-color:#1bbd00" />
    </linearGradient>
    <linearGradient
       id="linearGradient221"
       spreadMethod="pad"
       gradientTransform="matrix(0,94.054298,94.054298,0,347.79269,201.5112)"
       gradientUnits="userSpaceOnUse"
       y2="0"
       x2="1"
       y1="0"
       x1="0">
      <stop
         id="stop213"
         offset="0"
         style="stop-opacity:1;stop-color:#003875" />
      <stop
         id="stop215"
         offset="0.70605915"
         style="stop-opacity:1;stop-color:#007fd9" />
      <stop
         id="stop217"
         offset="0.970443"
         style="stop-opacity:1;stop-color:#007fd9" />
      <stop
         id="stop219"
         offset="1"
         style="stop-opacity:1;stop-color:#007fd9" />
    </linearGradient>
    <linearGradient
       id="linearGradient243"
       spreadMethod="pad"
       gradientTransform="matrix(45.979397,45.979397,45.979397,-45.979397,348.54285,189.80264)"
       gradientUnits="userSpaceOnUse"
       y2="0"
       x2="1"
       y1="0"
       x1="0">
      <stop
         id="stop237"
         offset="0"
         style="stop-opacity:1;stop-color:#001a36" />
      <stop
         id="stop239"
         offset="0.24213717"
         style="stop-opacity:1;stop-color:#001a36" />
      <stop
         id="stop241"
         offset="1"
         style="stop-opacity:1;stop-color:#005dc2" />
    </linearGradient>
    <linearGradient
       id="linearGradient269"
       spreadMethod="pad"
       gradientTransform="matrix(63.088451,69.788444,63.088451,-56.388458,340.65576,219.07825)"
       gradientUnits="userSpaceOnUse"
       y2="0"
       x2="1"
       y1="0"
       x1="0">
      <stop
         id="stop259"
         offset="0"
         style="stop-opacity:1;stop-color:#006de3" />
      <stop
         id="stop261"
         offset="0.0147783"
         style="stop-opacity:1;stop-color:#006de3" />
      <stop
         id="stop263"
         offset="0.93508376"
         style="stop-opacity:1;stop-color:#3bd1ff" />
      <stop
         id="stop265"
         offset="0.985222"
         style="stop-opacity:1;stop-color:#3bd1ff" />
      <stop
         id="stop267"
         offset="1"
         style="stop-opacity:1;stop-color:#3bd1ff" />
    </linearGradient>
    <clipPath
       id="clipPath279"
       clipPathUnits="userSpaceOnUse">
      <path
         inkscape:connector-curvature="0"
         id="path277"
         d="M 0,500 H 500 V 0 H 0 Z" />
    </clipPath>
    <clipPath
       id="clipPath307"
       clipPathUnits="userSpaceOnUse">
      <path
         inkscape:connector-curvature="0"
         id="path305"
         d="m 218.168,155.476 h 61.935 V 83.4928 h -61.935 z" />
    </clipPath>
    <clipPath
       id="clipPath335"
       clipPathUnits="userSpaceOnUse">
      <path
         inkscape:connector-curvature="0"
         id="path333"
         d="m 338.732,169.393 h 77.164 V 67.5765 h -77.164 z" />
    </clipPath>
    <clipPath
       id="clipPath371"
       clipPathUnits="userSpaceOnUse">
      <path
         inkscape:connector-curvature="0"
         id="path369"
         d="M 0,500 H 500 V 0 H 0 Z" />
    </clipPath>
  </defs>
  <sodipodi:namedview
     id="base"
     pagecolor="#ffffff"
     bordercolor="#666666"
     borderopacity="1.0"
     inkscape:pageopacity="0.0"
     inkscape:pageshadow="2"
     inkscape:zoom="1.9503907"
     inkscape:cx="221.25433"
     inkscape:cy="202.24911"
     inkscape:document-units="cm"
     inkscape:current-layer="layer1"
     showgrid="false"
     units="cm"
     inkscape:window-width="1855"
     inkscape:window-height="1057"
     inkscape:window-x="1432"
     inkscape:window-y="-8"
     inkscape:window-maximized="1" />
  <metadata
     id="metadata3704">
    <rdf:RDF>
      <cc:Work
         rdf:about="">
        <dc:format>image/svg+xml</dc:format>
        <dc:type
           rdf:resource="http://purl.org/dc/dcmitype/StillImage" />
        <dc:title />
      </cc:Work>
    </rdf:RDF>
  </metadata>
  <g
     inkscape:label="Ebene 1"
     inkscape:groupmode="layer"
     id="layer1"
     transform="translate(0,-187)">
    <path
       style="opacity:1;fill:#ffffff;fill-opacity:1;stroke:none;stroke-width:0;stroke-miterlimit:4;stroke-dasharray:none;stroke-opacity:1"
       d="M 18.898438 18.898438 L 18.898438 207.87305 A 188.97636 188.97636 0 0 0 82.503906 348.96289 L 82.503906 114.67188 L 191.74414 114.67188 C 230.92948 114.67188 259.27926 120.59346 276.79297 132.4375 C 294.43267 144.28154 303.25195 163.24604 303.25195 189.32812 C 303.25195 203.06217 300.03917 214.78039 293.61328 224.48242 C 287.18739 234.05845 277.86437 241.17588 265.64258 245.83789 C 281.26631 250.37391 293.36183 258.75452 301.92969 270.97656 C 310.49754 283.1986 314.78125 298.19293 314.78125 315.95898 C 314.78125 343.17507 305.58319 363.46036 287.1875 376.81641 C 269.37073 389.75213 242.54372 396.40346 206.76172 396.81055 A 188.97636 188.97636 0 0 0 207.87305 396.84961 L 396.84961 396.84961 L 396.84961 207.87305 A 188.97636 188.97636 0 0 0 207.87305 18.898438 L 18.898438 18.898438 z M 155.26758 164.19141 L 155.26758 223.91406 L 195.52344 223.91406 C 206.98924 223.91406 215.68357 221.39549 221.60547 216.35547 C 227.52737 211.31545 230.48828 203.88077 230.48828 194.05273 C 230.48828 184.3507 227.52737 176.97947 221.60547 171.93945 C 215.68357 166.77344 206.98924 164.19141 195.52344 164.19141 L 155.26758 164.19141 z M 155.26758 273.43359 L 155.26758 347.33203 L 197.98047 347.33203 C 212.59622 347.33203 223.55931 344.24433 230.86719 338.07031 C 238.30106 331.89629 242.01758 322.57365 242.01758 310.09961 C 242.01758 297.87757 238.36256 288.74138 231.05469 282.69336 C 223.74681 276.51934 212.72222 273.43359 197.98047 273.43359 L 155.26758 273.43359 z "
       id="circle104"
       transform="matrix(0.26458334,0,0,0.26458334,0,187)" />
  </g>
</svg>
